<svg width="122" height="64" viewBox="0 0 122 64" fill="none" xmlns="http://www.w3.org/2000/svg">
<mask id="mask0_1073_5575" style="mask-type:alpha" maskUnits="userSpaceOnUse" x="0" y="0" width="122" height="63">
<rect width="122" height="63" fill="#C4C4C4"/>
</mask>
<g mask="url(#mask0_1073_5575)">
</g>
<g clip-path="url(#clip0_1073_5575)">
<path d="M48.694 17.3481C48.3389 15.773 47.527 14.3369 46.3593 13.2186C47.6705 12.7652 49.1037 12.8123 50.3822 13.3506C51.6606 13.8889 52.6938 14.8803 53.2823 16.1335L56.0129 21.7002C56.9712 23.6592 57.5662 25.7749 57.769 27.9451L46.6638 28.2791C46.6638 28.1981 46.6638 28.107 46.6638 28.0261C46.5408 27.4843 46.3569 26.958 46.1157 26.4573L45.7097 25.6273C46.9315 24.6618 47.8585 23.3749 48.3858 21.912C48.9131 20.4491 49.0199 18.8683 48.694 17.3481Z" fill="#B4FBDF" stroke="#3D3DFF" stroke-width="0.75" stroke-linecap="round" stroke-linejoin="round"/>
<path d="M46.664 28.684C46.576 28.6836 46.4909 28.6533 46.4225 28.5981C46.3542 28.5429 46.3069 28.466 46.2884 28.3803V28.1475C46.1788 27.632 46.0048 27.1322 45.7707 26.6597L45.3647 25.8196C45.3247 25.7423 45.3131 25.6536 45.3316 25.5687C45.3501 25.4837 45.3977 25.4078 45.4662 25.354C46.6358 24.4309 47.521 23.1978 48.0201 21.7962C48.5192 20.3945 48.6121 18.8809 48.2881 17.429C47.9519 15.9309 47.1908 14.5607 46.0955 13.4817C46.0503 13.438 46.0171 13.3833 45.9994 13.323C45.9816 13.2627 45.9797 13.1988 45.994 13.1376C46.0088 13.0743 46.0387 13.0156 46.0811 12.9662C46.1235 12.9169 46.1772 12.8785 46.2376 12.8542C47.6309 12.384 49.1477 12.4325 50.5079 12.9906C51.8682 13.5488 52.9799 14.5788 53.6377 15.8906L56.3683 21.4674C57.3508 23.4622 57.9564 25.6203 58.1548 27.8338C58.1619 27.8848 58.1573 27.9368 58.1415 27.9858C58.1257 28.0349 58.099 28.0798 58.0635 28.1172C58.01 28.1996 57.9261 28.2577 57.83 28.2791L46.664 28.684ZM46.1361 25.7589L46.4102 26.3257C46.6639 26.8303 46.8548 27.3639 46.9787 27.9147L57.3123 27.5402C57.2489 26.948 57.1506 26.3599 57.0179 25.7791C56.7233 24.4082 56.2596 23.079 55.6374 21.8217L52.917 16.255C52.3953 15.1928 51.5325 14.3349 50.4657 13.8178C49.399 13.3006 48.1894 13.1538 47.0294 13.4008C47.9962 14.506 48.6698 15.8353 48.9885 17.2671C49.3375 18.8046 49.2591 20.4079 48.7618 21.9042C48.2645 23.4006 47.3672 24.7333 46.1666 25.7589H46.1361Z" fill="#3D3DFF"/>
<path d="M46.0854 13.32L46.3595 13.2188C47.5271 14.3371 48.3391 15.7732 48.6942 17.3482C49.0307 18.8692 48.9333 20.4538 48.413 21.9224C47.8927 23.391 46.9704 24.685 45.7504 25.6579L43.3548 20.7794C43.0262 20.1136 42.8362 19.3884 42.7963 18.6475C42.7563 17.9066 42.8673 17.1653 43.1224 16.4682C43.3776 15.7712 43.7717 15.1329 44.2809 14.5919C44.7901 14.0508 45.404 13.6181 46.0854 13.32Z" fill="#22C7FF"/>
<path d="M45.6491 26.032C45.594 26.02 45.5424 25.9955 45.4984 25.9604C45.4544 25.9253 45.4191 25.8805 45.3953 25.8295L43.0099 20.9612C42.6589 20.246 42.4571 19.4673 42.417 18.6721C42.3768 17.8769 42.499 17.0819 42.7761 16.3352C43.0533 15.5885 43.4796 14.9057 44.0293 14.3282C44.579 13.7506 45.2406 13.2904 45.9739 12.9755L46.1871 12.8945C46.2658 12.8662 46.3501 12.857 46.433 12.8675C46.516 12.8781 46.5952 12.9081 46.6642 12.9552C47.5431 13.8194 48.2283 14.8597 48.6744 16.0073C49.1205 17.1549 49.3174 18.3838 49.2522 19.6129C49.187 20.842 48.861 22.0433 48.296 23.1376C47.7309 24.2319 46.9395 25.1942 45.9739 25.9611C45.9276 25.9945 45.8748 26.0181 45.8189 26.0303C45.763 26.0425 45.7052 26.043 45.6491 26.032ZM46.2582 13.6536C45.6124 13.9211 45.0283 14.3176 44.5419 14.8186C44.0554 15.3196 43.677 15.9145 43.4298 16.5668C43.1825 17.2191 43.0718 17.9149 43.1043 18.6114C43.1369 19.308 43.312 19.9905 43.6189 20.6171L45.7912 25.0502C46.8432 24.1122 47.6253 22.9116 48.0571 21.572C48.4889 20.2324 48.5547 18.8022 48.2478 17.4288C47.9381 16.0145 47.2507 14.7101 46.2582 13.6536Z" fill="#3D3DFF"/>
<path d="M28.4738 54.9591L29.6209 40.2528C29.7384 38.7504 30.1573 37.2867 30.8528 35.9488C31.5484 34.6108 32.5063 33.4257 33.6698 32.4638C34.8333 31.5019 36.1787 30.7828 37.6262 30.3491C39.0737 29.9155 40.5938 29.7761 42.0964 29.9392L64.3574 32.3784L59.1195 43.2285L43.2231 41.1334C42.8849 41.0942 42.5422 41.1242 42.2159 41.2214C41.8897 41.3187 41.5867 41.4812 41.3255 41.699C41.0643 41.9168 40.8503 42.1854 40.6966 42.4884C40.5429 42.7914 40.4528 43.1224 40.4316 43.4613L39.1221 60.2424C39.0219 61.5397 38.4715 62.7616 37.5656 63.6981C36.6597 64.6346 35.4549 65.2272 34.1583 65.3739L18.1198 67.216L16.7089 56.3052L28.4738 54.9591Z" fill="#FF7698"/>
<path d="M18.1093 67.6005C18.0176 67.5969 17.9299 67.5616 17.8614 67.5006C17.7929 67.4397 17.7478 67.3569 17.7337 67.2665L16.3329 56.3557C16.3259 56.3054 16.3295 56.2542 16.3435 56.2054C16.3575 56.1566 16.3815 56.1113 16.4141 56.0723C16.444 56.0322 16.482 55.9988 16.5258 55.9744C16.5695 55.9499 16.6179 55.935 16.6679 55.9306L28.1181 54.5946L29.2449 40.2223C29.3662 38.6697 29.799 37.1571 30.5177 35.7744C31.2364 34.3918 32.2262 33.1671 33.4286 32.1731C34.631 31.1791 36.0213 30.436 37.5172 29.9879C39.013 29.5398 40.5839 29.3958 42.1366 29.5645L64.3976 31.9937C64.4576 32.003 64.5148 32.0249 64.5656 32.0581C64.6164 32.0913 64.6594 32.1349 64.692 32.186C64.7196 32.2409 64.7341 32.3016 64.7341 32.3631C64.7341 32.4246 64.7196 32.4852 64.692 32.5402L59.4642 43.4004C59.4285 43.4718 59.3708 43.5299 59.2996 43.5663C59.2284 43.6028 59.1474 43.6155 59.0683 43.6028L43.172 41.5077C42.8876 41.4756 42.5996 41.5012 42.3254 41.5829C42.0513 41.6647 41.7965 41.8009 41.5765 41.9834C41.3564 42.1659 41.1757 42.3909 41.0452 42.6449C40.9147 42.8988 40.837 43.1765 40.817 43.4611L39.5582 60.2726C39.437 61.6602 38.8362 62.9628 37.8587 63.9578C36.8811 64.9528 35.5874 65.5785 34.1985 65.728L18.1601 67.56L18.1093 67.6005ZM17.1348 56.6188L18.4443 66.7402L34.1173 64.9386C35.3258 64.7992 36.4482 64.2455 37.2925 63.3723C38.1368 62.499 38.6507 61.3604 38.7462 60.1512L40.0556 43.3397C40.0769 42.9509 40.1779 42.5707 40.3525 42.2225C40.5271 41.8743 40.7716 41.5656 41.0707 41.3154C41.3698 41.0694 41.715 40.8854 42.0863 40.7742C42.4576 40.663 42.8474 40.6267 43.2329 40.6676L58.8653 42.6919L63.7479 32.5706L42.0554 30.3034C40.6035 30.1444 39.1344 30.2779 37.7353 30.696C36.3362 31.1141 35.0356 31.8082 33.9108 32.7372C32.786 33.6661 31.8598 34.811 31.1873 36.1038C30.5148 37.3965 30.1097 38.8109 29.996 40.2628L28.849 54.9893C28.8444 55.0774 28.8079 55.1608 28.7463 55.2241C28.6847 55.2873 28.6022 55.3262 28.514 55.3334L17.1348 56.6188Z" fill="#3D3DFF"/>
<path d="M7.23776 61.882C7.10302 60.7126 7.43703 59.5375 8.16707 58.6124C8.89712 57.6873 9.96409 57.0873 11.1357 56.9428L16.6781 56.3052L17.815 65.1512L12.1508 65.799C10.9798 65.9215 9.80758 65.5791 8.88798 64.846C7.96839 64.1128 7.37551 63.0479 7.23776 61.882Z" fill="#B4FBDF" stroke="#3D3DFF" stroke-width="0.75" stroke-linecap="round" stroke-linejoin="round"/>
<path d="M11.623 66.2035C10.4411 66.1957 9.3033 65.7553 8.42563 64.966C7.54796 64.1767 6.99161 63.0935 6.86224 61.9221C6.73099 60.6552 7.1061 59.3878 7.90617 58.3949C8.70623 57.402 9.86671 56.7637 11.1358 56.6186L16.6782 55.9809C16.7276 55.9753 16.7776 55.9795 16.8253 55.9933C16.873 56.0071 16.9175 56.0302 16.9562 56.0613C16.995 56.0923 17.0271 56.1308 17.0508 56.1743C17.0745 56.2178 17.0893 56.2656 17.0944 56.3149L18.2414 65.1002C18.2511 65.2015 18.2221 65.3027 18.1602 65.3836C18.1304 65.4238 18.0923 65.4571 18.0486 65.4816C18.0048 65.506 17.9564 65.5209 17.9065 65.5253L12.2422 66.1731C12.0325 66.1933 11.8261 66.2035 11.623 66.2035ZM16.3838 56.7299L11.2068 57.3169C10.132 57.4458 9.15113 57.9911 8.47624 58.8351C8.13586 59.2579 7.88409 59.7445 7.73588 60.2661C7.58766 60.7876 7.54602 61.3336 7.61341 61.8715C7.74248 62.9277 8.27739 63.8929 9.1056 64.5638C9.53036 64.9014 10.0187 65.1506 10.5418 65.2967C11.0649 65.4427 11.6121 65.4826 12.1509 65.414L17.4294 64.8168L16.3838 56.7299Z" fill="#3D3DFF"/>
<path d="M68.9965 39.7768L68.6615 60.0194C68.5898 64.4832 67.8788 68.9139 66.5501 73.1771L37.4169 69.2906C36.6455 69.0476 37.1429 64.9688 37.4169 64.2299L39.2543 56.315C39.4341 55.8968 39.5173 55.4437 39.4979 54.9891L38.8787 38.876" fill="#FF7698"/>
<path d="M66.5599 73.5819H66.5091L37.3658 69.665C37.2489 69.6366 37.1407 69.5804 37.0505 69.501C36.9603 69.4217 36.8908 69.3216 36.8481 69.2095C36.3405 68.1164 36.8481 64.7258 37.112 64.078L38.8783 56.2238C39.0477 55.8417 39.1308 55.427 39.1219 55.0093L38.5433 38.886C38.5405 38.7857 38.5772 38.6882 38.6454 38.6145C38.7137 38.5407 38.8082 38.4965 38.9087 38.4913C38.9589 38.4886 39.0091 38.4959 39.0564 38.5129C39.1036 38.5298 39.147 38.5561 39.1839 38.59C39.2208 38.624 39.2505 38.665 39.2713 38.7106C39.292 38.7563 39.3033 38.8056 39.3046 38.8556L39.934 54.9789C39.9233 55.4936 39.7948 55.999 39.5584 56.4566L37.8327 64.3108C37.4876 65.1306 37.1932 68.42 37.5485 68.9261L66.2858 72.8127C67.5522 68.6692 68.2355 64.3705 68.316 60.0396L68.6408 39.7969C68.6381 39.6993 68.6736 39.6044 68.74 39.5326C68.8064 39.4607 68.8983 39.4176 68.9961 39.4123C69.0463 39.4123 69.096 39.4223 69.1422 39.4418C69.1885 39.4612 69.2303 39.4897 69.2654 39.5256C69.3004 39.5614 69.3278 39.6039 69.3461 39.6505C69.3643 39.6971 69.3731 39.7469 69.3717 39.7969L69.0469 60.0396C68.9881 64.5386 68.2874 69.0065 66.9659 73.3086C66.9405 73.394 66.8861 73.468 66.812 73.5178C66.7379 73.5676 66.6488 73.5903 66.5599 73.5819Z" fill="#3D3DFF"/>
<path d="M52.3489 52.1552C52.2637 52.1579 52.1805 52.1291 52.1154 52.0743C48.6673 49.3703 45.7813 46.0218 43.619 42.2161C43.5801 42.1286 43.5754 42.0297 43.6058 41.9389C43.6361 41.848 43.6993 41.7717 43.7831 41.7249C43.8669 41.6781 43.9651 41.6641 44.0587 41.6857C44.1523 41.7073 44.2344 41.7629 44.289 41.8416C46.4004 45.5655 49.2251 48.8393 52.6026 51.4771C52.6829 51.5392 52.7355 51.6303 52.7488 51.7308C52.7621 51.8312 52.7351 51.9328 52.6737 52.0135C52.6333 52.0596 52.5833 52.0961 52.5272 52.1206C52.471 52.1451 52.4101 52.1569 52.3489 52.1552Z" fill="#3D3DFF"/>
<path d="M45.8113 30.354L68.5799 32.8337C70.2519 33.0152 71.8531 33.6057 73.2412 34.5526C74.6293 35.4996 75.7613 36.7738 76.5367 38.2619C77.3121 39.7501 77.7068 41.4061 77.6858 43.083C77.6649 44.7599 77.2288 46.4056 76.4164 47.874L63.3319 71.5782C62.6844 72.7273 61.7614 73.6986 60.6455 74.4051C59.5295 75.1116 58.2553 75.5313 56.9368 75.6267L35.9852 77.2866L35.0412 66.3252L54.46 64.8374L64.9357 45.7991C65.0678 45.5612 65.1389 45.2944 65.1426 45.0225C65.1463 44.7505 65.0826 44.4819 64.957 44.2404C64.8314 43.999 64.6479 43.7923 64.4228 43.6387C64.1977 43.485 63.938 43.3893 63.6669 43.3599" fill="#FF7698"/>
<path d="M35.9855 77.6609C35.8916 77.6589 35.8016 77.6229 35.7325 77.5596C35.6634 77.4962 35.6198 77.4099 35.6099 77.3168L34.6659 66.3554C34.6568 66.2573 34.6859 66.1595 34.7471 66.0821C34.8141 66.0051 34.909 65.9578 35.011 65.9505L54.2267 64.4728L64.6416 45.6168C64.7411 45.4334 64.7932 45.2281 64.7932 45.0196C64.7932 44.8111 64.7411 44.6059 64.6416 44.4225C64.5456 44.2316 64.4017 44.0687 64.2238 43.9499C64.0458 43.831 63.8401 43.7602 63.6265 43.7443C63.5269 43.7293 63.4368 43.6769 63.3746 43.5979C63.3123 43.519 63.2826 43.4193 63.2915 43.3192C63.2966 43.2699 63.3114 43.2221 63.3351 43.1786C63.3588 43.1351 63.3909 43.0966 63.4297 43.0656C63.4684 43.0345 63.5129 43.0114 63.5606 42.9976C63.6083 42.9838 63.6583 42.9796 63.7077 42.9852C64.0426 43.0198 64.3636 43.1369 64.6418 43.326C64.92 43.515 65.1466 43.7701 65.3014 44.0682C65.4596 44.3624 65.5423 44.6909 65.5423 45.0247C65.5423 45.3584 65.4596 45.687 65.3014 45.9811L54.785 65.0194C54.7543 65.075 54.7106 65.1225 54.6576 65.1578C54.6046 65.193 54.5438 65.215 54.4805 65.2218L35.4982 66.6793L36.3306 76.8613L56.9066 75.2824C58.1671 75.1858 59.3836 74.7781 60.4468 74.0961C61.51 73.4141 62.3864 72.4792 62.9971 71.3756L76.102 47.6916C76.881 46.2774 77.2984 44.6935 77.3173 43.0801C77.3361 41.4667 76.9559 39.8735 76.2102 38.4415C75.4645 37.0095 74.3764 35.7828 73.042 34.87C71.7076 33.9572 70.1682 33.3864 68.5598 33.208L45.771 30.7283C45.6703 30.7156 45.5787 30.6639 45.516 30.5843C45.4533 30.5048 45.4245 30.4038 45.436 30.3032C45.4411 30.2539 45.4559 30.2061 45.4796 30.1626C45.5033 30.119 45.5354 30.0806 45.5742 30.0496C45.6129 30.0185 45.6574 29.9954 45.7051 29.9816C45.7528 29.9678 45.8028 29.9636 45.8522 29.9692L68.6208 32.4591C70.3544 32.6476 72.0146 33.2601 73.4536 34.2424C74.8927 35.2246 76.0662 36.5461 76.8697 38.0894C77.6732 39.6327 78.082 41.35 78.0596 43.0888C78.0372 44.8275 77.5845 46.5338 76.7415 48.056L63.6671 71.8006C62.9952 73.0149 62.0312 74.0437 60.8618 74.7945C59.6924 75.5454 58.3542 75.9947 56.9675 76.1022L36.0159 77.6609H35.9855Z" fill="#3D3DFF"/>
<path d="M44.2076 30.1614L45.9129 30.3436C46.027 30.3565 46.1425 30.3451 46.2518 30.3102C46.3612 30.2754 46.4618 30.2178 46.5472 30.1412C46.6326 30.0647 46.7007 29.971 46.7471 29.8664C46.7935 29.7617 46.8171 29.6484 46.8164 29.5339C46.8032 29.1119 46.7523 28.6919 46.6641 28.2789L57.7388 27.874C57.7388 28.3902 57.8098 28.8862 57.82 29.4428V36.5278" fill="#FF7698"/>
<path d="M57.8807 36.9329C57.7802 36.9303 57.6847 36.8886 57.6145 36.8168C57.5443 36.7449 57.5051 36.6486 57.5051 36.5483V29.4634C57.5051 29.0889 57.5051 28.7043 57.5051 28.2893L47.2324 28.6638C47.2725 28.9488 47.2929 29.2363 47.2933 29.5241C47.2945 29.6923 47.2598 29.8588 47.1914 30.0126C47.123 30.1663 47.0226 30.3038 46.8968 30.4158C46.771 30.5279 46.6227 30.6119 46.4618 30.6623C46.3008 30.7128 46.131 30.7284 45.9635 30.7083L44.2582 30.5261C44.2082 30.5225 44.1595 30.5086 44.1151 30.4854C44.0708 30.4622 44.0317 30.4301 44.0003 30.3912C43.9688 30.3523 43.9458 30.3073 43.9325 30.2592C43.9193 30.211 43.9161 30.1606 43.9232 30.1111C43.9268 30.0613 43.9408 30.0128 43.964 29.9685C43.9873 29.9243 44.0195 29.8853 44.0585 29.854C44.0975 29.8227 44.1426 29.7997 44.1909 29.7865C44.2392 29.7732 44.2898 29.7701 44.3394 29.7771L46.0447 29.9593C46.1054 29.9671 46.167 29.9611 46.225 29.9419C46.283 29.9226 46.3359 29.8905 46.3797 29.848C46.4277 29.8087 46.4663 29.7593 46.4926 29.7032C46.519 29.6472 46.5324 29.586 46.532 29.5241C46.529 29.1365 46.4882 28.75 46.4102 28.3703C46.4007 28.3152 46.403 28.2588 46.417 28.2047C46.431 28.1506 46.4563 28.1001 46.4914 28.0565C46.5643 27.9745 46.6661 27.9238 46.7756 27.9148L57.8401 27.51C57.9375 27.5069 58.0324 27.5406 58.1059 27.6045C58.1793 27.6683 58.2258 27.7575 58.236 27.8541C58.236 28.431 58.3172 28.9573 58.3172 29.4533V36.5382C58.3186 36.5882 58.3099 36.638 58.2916 36.6846C58.2733 36.7312 58.2459 36.7737 58.2109 36.8096C58.1758 36.8454 58.134 36.8739 58.0877 36.8934C58.0415 36.9128 57.9918 36.9228 57.9416 36.9228L57.8807 36.9329Z" fill="#3D3DFF"/>
<path d="M41.1519 16.7305L39.4669 13.5726C38.7887 12.3135 38.6213 10.8429 38.999 9.46423C39.3768 8.08558 40.271 6.90416 41.4971 6.16382C42.1549 5.775 42.8857 5.52482 43.6444 5.42873C44.403 5.33265 45.1733 5.3927 45.9078 5.60518C46.6422 5.81766 47.3252 6.17806 47.9144 6.66409C48.5036 7.15013 48.9867 7.75148 49.3336 8.431L53.2823 16.1333L46.1767 19.4734L46.0244 19.1697C45.5883 18.2905 44.8768 17.5769 43.9977 17.1368C43.1186 16.6967 42.1196 16.5541 41.1519 16.7305Z" fill="#FF282D"/>
<path d="M46.1771 19.8078C46.1087 19.805 46.0421 19.7849 45.9836 19.7495C45.925 19.7141 45.8763 19.6645 45.8422 19.6054L45.6493 19.2916C45.235 18.5123 44.583 17.8845 43.7875 17.4988C42.992 17.1131 42.0941 16.9895 41.2235 17.1459C41.1441 17.1602 41.0623 17.1493 40.9895 17.1148C40.9166 17.0803 40.8565 17.0239 40.8175 16.9536L39.1222 13.7451C38.4039 12.395 38.2341 10.821 38.6479 9.34936C39.0618 7.87774 40.0276 6.62129 41.3453 5.84037C42.0477 5.42664 42.8276 5.16063 43.637 5.0587C44.4464 4.95678 45.2682 5.02109 46.0517 5.24769C46.8353 5.47429 47.564 5.85838 48.1931 6.37632C48.8222 6.89426 49.3383 7.53509 49.7097 8.25936L53.6178 15.9212C53.6536 16.0158 53.6536 16.1202 53.6178 16.2147C53.5788 16.3107 53.5068 16.3896 53.4148 16.4374L46.3091 19.7774C46.2666 19.7933 46.2223 19.8035 46.1771 19.8078ZM42.0254 16.2755C42.9208 16.2856 43.7967 16.5375 44.56 17.0044C45.3232 17.4714 45.9452 18.1359 46.3599 18.9272L52.7651 15.8908L49.0397 8.60349C48.7362 7.97865 48.3102 7.42083 47.7867 6.96304C47.2633 6.50525 46.653 6.15677 45.9922 5.93823C45.3313 5.71968 44.6331 5.63551 43.9391 5.69068C43.245 5.74585 42.5691 5.93925 41.9512 6.25944C41.3334 6.57963 40.7863 7.0201 40.3422 7.55481C39.8981 8.08951 39.5661 8.70759 39.3657 9.37248C39.1654 10.0374 39.1008 10.7356 39.1758 11.4258C39.2508 12.116 39.4638 12.7842 39.8024 13.3909L41.3554 16.3159C41.5776 16.2873 41.8014 16.2738 42.0254 16.2755Z" fill="#3D3DFF"/>
<path d="M41.1523 16.7309C42.12 16.5544 43.119 16.6971 43.9981 17.1372C44.8772 17.5773 45.5887 18.2909 46.0248 19.1701L46.1872 19.4839L43.3043 20.83L41.1523 16.7309Z" fill="#22C7FF"/>
<path d="M43.304 21.1943C43.2356 21.1915 43.169 21.1714 43.1104 21.136C43.0518 21.1006 43.0032 21.0511 42.969 20.9919L40.817 16.9434C40.7894 16.8902 40.775 16.8312 40.775 16.7713C40.775 16.7114 40.7894 16.6524 40.817 16.5992C40.8435 16.5454 40.8819 16.4982 40.9294 16.4614C40.9769 16.4246 41.0322 16.399 41.0911 16.3867C42.1347 16.197 43.2118 16.3464 44.1638 16.8129C45.1159 17.2793 45.8926 18.0382 46.3797 18.9777L46.532 19.2915C46.5524 19.3378 46.5629 19.3877 46.5629 19.4383C46.5629 19.4888 46.5524 19.5388 46.532 19.585C46.4971 19.6802 46.4285 19.7594 46.3391 19.8077L43.4563 21.1538C43.4096 21.1796 43.3573 21.1935 43.304 21.1943ZM41.7408 17.0446L43.4766 20.2834L45.6692 19.2713C45.296 18.5648 44.7278 17.9796 44.0316 17.585C43.3354 17.1904 42.5405 17.0029 41.7408 17.0446Z" fill="#3D3DFF"/>
<path d="M43.3041 21.1941C43.218 21.192 43.1351 21.1612 43.0686 21.1066C43.0021 21.0521 42.9558 20.9769 42.9372 20.8931C42.9185 20.8092 42.9285 20.7216 42.9655 20.6441C43.0026 20.5666 43.0646 20.5037 43.1417 20.4654L53.8915 15.4047C55.0041 14.8738 55.9287 14.0187 56.5432 12.9524C57.1577 11.8861 57.433 10.6589 57.3327 9.43314C57.3384 9.34072 57.3774 9.25346 57.4425 9.18739C57.5076 9.12132 57.5944 9.08088 57.6869 9.07349C57.7795 9.06611 57.8717 9.09227 57.9464 9.14719C58.0212 9.2021 58.0736 9.28207 58.094 9.37242C58.2112 10.7531 57.9026 12.1365 57.2096 13.3376C56.5167 14.5386 55.4723 15.5 54.2164 16.093L43.4665 21.1536C43.4169 21.1811 43.3609 21.195 43.3041 21.1941Z" fill="#3D3DFF"/>
<path d="M52.5925 21.8317C52.8168 21.8317 52.9985 21.6504 52.9985 21.4268C52.9985 21.2032 52.8168 21.022 52.5925 21.022C52.3683 21.022 52.1865 21.2032 52.1865 21.4268C52.1865 21.6504 52.3683 21.8317 52.5925 21.8317Z" fill="#3D3DFF"/>
<path d="M52.5822 22.206C52.3953 22.2054 52.2149 22.137 52.0747 22.0137C51.9161 21.8736 51.8179 21.6778 51.8006 21.4672C51.7871 21.2578 51.8577 21.0517 51.9966 20.8941C52.1356 20.7366 52.3316 20.6405 52.5416 20.6271C52.7516 20.6137 52.9584 20.684 53.1164 20.8226C53.2744 20.9611 53.3707 21.1566 53.3842 21.366C53.3926 21.5731 53.3201 21.7754 53.1819 21.9303C53.0436 22.0851 52.8505 22.1803 52.6431 22.1959L52.5822 22.206Z" fill="#3D3DFF"/>
<path d="M101.723 28.8154C101.644 28.0748 101.285 27.3918 100.72 26.9051C100.154 26.4183 99.4242 26.1641 98.6777 26.194C99.2145 25.6877 99.5406 24.9986 99.5914 24.2636C99.6422 23.5286 99.4139 22.8014 98.9518 22.2264C98.4884 21.6549 97.8274 21.2767 97.0987 21.1662C96.3699 21.0557 95.6261 21.2209 95.0132 21.6293C95.1893 20.9148 95.0898 20.1604 94.7345 19.5156C94.3792 18.8708 93.7939 18.3825 93.0947 18.1476C92.3942 17.9144 91.6315 17.9514 90.957 18.2511C90.2825 18.5509 89.745 19.0917 89.4505 19.767C89.2073 19.0747 88.713 18.4984 88.0649 18.1514C87.4167 17.8045 86.6618 17.712 85.9488 17.8923C85.2357 18.0726 84.6162 18.5125 84.2122 19.1255C83.8082 19.7385 83.649 20.48 83.766 21.2042C83.1869 20.746 82.4562 20.5218 81.7189 20.5762C80.9817 20.6306 80.292 20.9596 79.7868 21.4977C79.2867 22.038 79.0091 22.7463 79.0091 23.4815C79.0091 24.2167 79.2867 24.925 79.7868 25.4653C79.0519 25.3921 78.3162 25.5971 77.7258 26.0396C77.1354 26.4821 76.7333 27.1297 76.5994 27.8539C76.4643 28.5774 76.6076 29.3251 77.0008 29.948C77.394 30.5708 78.0082 31.0229 78.721 31.2142C78.0646 31.5498 77.558 32.1181 77.3006 32.8074C77.0433 33.4966 77.0539 34.257 77.3303 34.9388C77.6096 35.6217 78.1364 36.1747 78.806 36.4879C79.4756 36.8011 80.2389 36.8515 80.944 36.6291C80.5714 37.2638 80.4522 38.0152 80.6102 38.7336C80.7682 39.452 81.1919 40.0846 81.7967 40.5056C82.3993 40.9306 83.1405 41.1136 83.8724 41.0179C84.6043 40.9222 85.2731 40.555 85.7454 39.9894C85.7779 40.7243 86.0859 41.4202 86.6086 41.9394C87.1312 42.4586 87.8302 42.7633 88.5674 42.793C89.306 42.824 90.0293 42.5768 90.5935 42.1005C91.1577 41.6242 91.5216 40.9537 91.6127 40.2222C92.0366 40.8262 92.6737 41.2484 93.3965 41.4042C94.1192 41.5599 94.8743 41.4378 95.5106 41.0622C96.1465 40.6903 96.6193 40.0939 96.8355 39.3911C97.0516 38.6883 96.9954 37.9302 96.678 37.2667C97.3739 37.5535 98.1534 37.5645 98.8572 37.2973C99.5609 37.0302 100.136 36.5051 100.464 35.8295C100.798 35.1722 100.871 34.414 100.67 33.7053C100.469 32.9966 100.008 32.3892 99.3781 32.0037C100.096 31.8569 100.733 31.4493 101.167 30.8601C101.6 30.2709 101.798 29.5422 101.723 28.8154Z" fill="#9480FF"/>
<path d="M88.6587 43.1271H88.5673C87.8694 43.0884 87.2009 42.8336 86.6551 42.3982C86.1092 41.9627 85.7132 41.3684 85.5221 40.698C84.9622 41.1211 84.2822 41.3562 83.5798 41.3695C82.8774 41.3828 82.1889 41.1735 81.6134 40.7718C81.0378 40.3701 80.605 39.7967 80.3771 39.1342C80.1492 38.4716 80.138 37.754 80.3451 37.0847C79.6448 37.1386 78.9455 36.9697 78.3476 36.6022C77.7497 36.2347 77.2842 35.6876 77.0179 35.0396C76.7516 34.3916 76.6983 33.6761 76.8657 32.996C77.0331 32.3159 77.4126 31.7063 77.9495 31.2548C77.3335 30.9199 76.8394 30.3996 76.5377 29.7681C76.2359 29.1366 76.1419 28.4262 76.2691 27.7383C76.3963 27.0504 76.7381 26.4202 77.2459 25.9375C77.7536 25.4548 78.4013 25.1443 79.0965 25.0504C78.756 24.4376 78.6193 23.7329 78.7061 23.0377C78.7929 22.3425 79.0987 21.6927 79.5795 21.1818C80.0602 20.671 80.6912 20.3254 81.3815 20.1948C82.0718 20.0643 82.7858 20.1555 83.4208 20.4553C83.4767 19.767 83.7471 19.1132 84.1942 18.5858C84.6414 18.0583 85.2428 17.6836 85.9142 17.5139C86.5856 17.3443 87.2935 17.3884 87.9385 17.64C88.5836 17.8916 89.1335 18.3381 89.5114 18.9169C89.928 18.348 90.5159 17.9265 91.1893 17.7137C91.8628 17.501 92.5868 17.508 93.256 17.7338C93.9252 17.9596 94.5047 18.3924 94.9102 18.9692C95.3157 19.5461 95.526 20.2369 95.5106 20.9412C96.1639 20.7008 96.8765 20.6715 97.5474 20.8572C98.2184 21.0429 98.8138 21.4344 99.2494 21.9761C99.6849 22.5179 99.9386 23.1825 99.9744 23.8759C100.01 24.5693 99.8265 25.2564 99.4491 25.8399C100.134 25.9862 100.755 26.3434 101.225 26.8611C101.695 27.3787 101.99 28.0306 102.068 28.7245L101.703 28.8155H102.078C102.142 29.5104 101.986 30.2077 101.633 30.8101C101.28 31.4125 100.747 31.8899 100.109 32.1758C100.605 32.6709 100.931 33.3095 101.042 34.0006C101.152 34.6917 101.04 35.3998 100.723 36.0239C100.406 36.648 99.8984 37.1561 99.2741 37.4757C98.6497 37.7952 97.94 37.9099 97.2464 37.8033C97.3992 38.4871 97.3304 39.2016 97.05 39.8439C96.7696 40.4863 96.292 41.0234 95.686 41.3778C95.0799 41.7323 94.3767 41.8859 93.6775 41.8164C92.9784 41.747 92.3194 41.4582 91.7953 40.9915C91.5484 41.6206 91.117 42.1609 90.5575 42.5418C89.9979 42.9228 89.3362 43.1268 88.6587 43.1271ZM85.7555 39.534H85.8773C85.9506 39.5575 86.0145 39.6033 86.0601 39.6651C86.1057 39.7269 86.1305 39.8015 86.1311 39.8782C86.1965 40.4882 86.4793 41.0546 86.9282 41.4743C87.3771 41.8939 87.9622 42.1389 88.577 42.1647C89.1918 42.1904 89.7954 41.9952 90.2781 41.6146C90.7607 41.2339 91.0902 40.6932 91.2066 40.0907C91.2148 40.0141 91.2465 39.9419 91.2974 39.884C91.3482 39.826 91.4158 39.7851 91.4908 39.7668C91.5659 39.7472 91.6453 39.7512 91.718 39.7784C91.7907 39.8056 91.8532 39.8546 91.8968 39.9186C92.2731 40.4297 92.8261 40.7834 93.4489 40.9114C94.0717 41.0393 94.7199 40.9323 95.2681 40.6112C95.8163 40.29 96.2256 39.7775 96.4166 39.1728C96.6077 38.5681 96.567 37.9142 96.3024 37.3377C96.2688 37.2682 96.2577 37.19 96.2704 37.1139C96.2831 37.0379 96.3191 36.9675 96.3734 36.9126C96.4254 36.8572 96.493 36.8188 96.5673 36.8025C96.6416 36.7863 96.7191 36.7929 96.7896 36.8215C97.3854 37.0716 98.054 37.0874 98.6611 36.8659C99.2681 36.6444 99.7686 36.202 100.062 35.6276C100.355 35.0531 100.419 34.3893 100.241 33.7696C100.064 33.1499 99.6574 32.6203 99.104 32.2872C99.0402 32.2463 98.9898 32.1875 98.9593 32.1182C98.9288 32.0489 98.9195 31.9722 98.9325 31.8977C98.9455 31.8231 98.9802 31.7541 99.0324 31.6991C99.0846 31.6442 99.1519 31.6058 99.2258 31.5888C99.8475 31.4573 100.399 31.1015 100.773 30.5896C101.148 30.0778 101.32 29.446 101.256 28.8155V28.7346C101.185 28.1004 100.877 27.5162 100.394 27.098C99.9104 26.6798 99.2869 26.4583 98.6472 26.4775C98.5707 26.4821 98.4948 26.4619 98.4308 26.42C98.3668 26.378 98.3181 26.3165 98.2919 26.2447C98.275 26.1753 98.2795 26.1024 98.3048 26.0355C98.3302 25.9687 98.3752 25.9111 98.434 25.8702C98.8916 25.4263 99.1668 24.8283 99.2061 24.1929C99.2454 23.5576 99.046 22.9304 98.6467 22.4337C98.2474 21.937 97.6769 21.6064 97.0465 21.5064C96.416 21.4063 95.7707 21.544 95.2365 21.8926C95.1723 21.9365 95.0962 21.96 95.0183 21.96C94.9403 21.96 94.8643 21.9365 94.8 21.8926C94.7398 21.8456 94.6937 21.7829 94.6668 21.7115C94.64 21.6401 94.6334 21.5626 94.6477 21.4877C94.7995 20.867 94.712 20.2121 94.4027 19.6526C94.0935 19.0931 93.5848 18.6697 92.9775 18.4661C92.3701 18.2626 91.7083 18.2937 91.1228 18.5533C90.5374 18.813 90.071 19.2822 89.8159 19.8683C89.7843 19.9383 89.7329 19.9977 89.668 20.039C89.6031 20.0804 89.5275 20.1019 89.4505 20.1011C89.3743 20.0976 89.3009 20.0718 89.2394 20.0267C89.178 19.9817 89.1313 19.9195 89.1053 19.8481C88.858 19.3021 88.4259 18.8603 87.8846 18.6002C87.3433 18.3401 86.7275 18.2783 86.1451 18.4256C85.5627 18.5729 85.0509 18.9199 84.6994 19.4057C84.3479 19.8916 84.1792 20.4853 84.2227 21.0829C84.2344 21.1593 84.2233 21.2374 84.1908 21.3076C84.1583 21.3777 84.1059 21.4369 84.04 21.4776C83.9779 21.5221 83.9033 21.546 83.8268 21.546C83.7504 21.546 83.6758 21.5221 83.6137 21.4776C83.1087 21.0875 82.4761 20.8991 81.8392 20.9491C81.2024 20.9991 80.6072 21.2839 80.1696 21.748C79.7321 22.212 79.4837 22.822 79.473 23.4589C79.4623 24.0957 79.69 24.7137 80.1116 25.1921C80.1637 25.248 80.1975 25.3184 80.2084 25.3939C80.2193 25.4694 80.2068 25.5465 80.1726 25.6147C80.1384 25.683 80.0841 25.7392 80.0169 25.7758C79.9498 25.8124 79.873 25.8277 79.7969 25.8196C79.1585 25.7654 78.5224 25.9482 78.0109 26.333C77.4994 26.7179 77.1486 27.2776 77.0257 27.9046C76.9115 28.5342 77.0378 29.1835 77.3798 29.7249C77.7217 30.2662 78.2544 30.6604 78.8732 30.8297C78.9457 30.851 79.0103 30.893 79.059 30.9506C79.1077 31.0082 79.1384 31.0788 79.1473 31.1536C79.1577 31.2308 79.1438 31.3093 79.1074 31.3783C79.071 31.4472 79.014 31.5031 78.9442 31.5382C78.3653 31.8254 77.9169 32.3205 77.6893 32.924C77.4616 33.5275 77.4717 34.1945 77.7174 34.7909C77.9631 35.3873 78.4262 35.8688 79.0135 36.1385C79.6008 36.4082 80.2688 36.4461 80.8831 36.2446C80.9561 36.2228 81.0341 36.2238 81.1067 36.2473C81.1792 36.2708 81.2428 36.3157 81.2891 36.3762C81.3337 36.4381 81.3577 36.5125 81.3577 36.5887C81.3577 36.665 81.3337 36.7393 81.2891 36.8013C80.9806 37.3545 80.8885 38.0021 81.0306 38.619C81.1728 39.236 81.5391 39.7786 82.0588 40.1421C82.5786 40.5056 83.2149 40.6643 83.8451 40.5875C84.4753 40.5107 85.0546 40.2039 85.4713 39.7263C85.5006 39.6746 85.5414 39.6303 85.5908 39.5969C85.6401 39.5635 85.6965 39.542 85.7555 39.534Z" fill="#3D3DFF"/>
<path d="M108.585 72.3068L109.6 56.3556C109.66 55.3815 109.394 54.4149 108.843 53.6085C108.291 52.802 107.486 52.2017 106.554 51.9022L89.2065 46.1533L80.8929 52.55L100.596 59.1693L99.6721 73.6226C99.6319 74.2173 99.7138 74.814 99.9127 75.3761C100.112 75.9382 100.424 76.454 100.829 76.8918L104.027 80.3432L110.554 74.4019L108.585 72.3068Z" fill="#FF282D"/>
<path d="M104.017 80.7274C103.913 80.7233 103.815 80.6798 103.743 80.606L100.545 77.1445C100.105 76.6702 99.7666 76.1115 99.5502 75.5024C99.3338 74.8934 99.2441 74.2467 99.2865 73.602L100.2 59.4321L80.7712 52.914C80.7053 52.891 80.6469 52.8506 80.6022 52.7972C80.5576 52.7437 80.5282 52.6791 80.5175 52.6104C80.5074 52.5425 80.5152 52.4733 80.5401 52.4094C80.565 52.3455 80.6062 52.2892 80.6596 52.246L88.9732 45.8493C89.0247 45.8145 89.083 45.7911 89.1443 45.7807C89.2055 45.7702 89.2683 45.7729 89.3285 45.7886L106.758 51.5476C107.757 51.8871 108.617 52.5442 109.206 53.4182C109.794 54.2922 110.079 55.3347 110.016 56.3856L109.001 72.1648L110.828 74.189C110.897 74.2633 110.933 74.3615 110.93 74.4623C110.928 74.512 110.916 74.5609 110.895 74.6061C110.874 74.6513 110.845 74.6919 110.808 74.7255L104.281 80.6667C104.203 80.7189 104.109 80.7406 104.017 80.7274ZM81.6848 52.3877L100.718 58.7844C100.798 58.8108 100.867 58.8628 100.915 58.9323C100.963 59.0018 100.986 59.0849 100.982 59.169L100.048 73.6425C99.9957 74.1912 100.059 74.7447 100.234 75.2676C100.409 75.7904 100.691 76.2711 101.063 76.6789L103.997 79.857L109.955 74.4319L108.28 72.6101C108.244 72.5732 108.215 72.5287 108.198 72.4797C108.18 72.4307 108.174 72.3785 108.179 72.3267L109.194 56.3856C109.241 55.5053 108.999 54.6335 108.505 53.9028C108.01 53.1721 107.29 52.6223 106.453 52.3371L89.298 46.6185L81.6848 52.3877Z" fill="#3D3DFF"/>
<path d="M77.33 48.248L71.9399 57.3572C69.6816 61.2307 68.3284 65.5621 67.981 70.0291L67.4836 76.1627L93.2569 78.6222C93.5122 78.646 93.7697 78.6145 94.0117 78.5297C94.2536 78.4449 94.4743 78.3088 94.6585 78.1309C94.8428 77.953 94.9862 77.7374 95.0789 77.499C95.1716 77.2606 95.2115 77.0049 95.1957 76.7497L94.6577 68.349L102.545 58.6933" fill="#FF282D"/>
<path d="M93.3587 79.007H93.176L67.4027 76.5374C67.304 76.5271 67.2131 76.4793 67.1488 76.4039C67.0845 76.3285 67.0518 76.2313 67.0576 76.1325L67.5651 69.999C67.9415 65.4885 69.3291 61.1199 71.6255 57.2158L77.0157 48.1066C77.0666 48.0205 77.1491 47.9576 77.2457 47.9312C77.3424 47.9048 77.4455 47.9168 77.5334 47.9649C77.6204 48.0176 77.6837 48.1016 77.7102 48.1997C77.7366 48.2977 77.7242 48.4021 77.6755 48.4912L72.2752 57.651C70.0463 61.4597 68.6973 65.7161 68.3265 70.1103L67.8595 75.8694L93.2978 78.2985C93.4982 78.3096 93.6987 78.2764 93.8847 78.2011C94.0707 78.1259 94.2378 78.0105 94.3738 77.8633C94.5179 77.7212 94.6304 77.5504 94.7039 77.3621C94.7773 77.1737 94.8101 76.972 94.8001 76.7702L94.2621 68.3695C94.2574 68.3224 94.2621 68.2749 94.276 68.2297C94.29 68.1845 94.3129 68.1426 94.3433 68.1063L102.231 58.4506C102.301 58.3813 102.396 58.3425 102.495 58.3425C102.593 58.3425 102.688 58.3813 102.758 58.4506C102.837 58.5141 102.888 58.606 102.899 58.7063C102.911 58.8067 102.882 58.9075 102.819 58.987L95.0336 68.5213L95.5614 76.7702C95.5811 77.0813 95.5322 77.3929 95.4182 77.6831C95.3042 77.9734 95.1279 78.2352 94.9016 78.4503C94.6954 78.642 94.4524 78.7902 94.1872 78.8858C93.9221 78.9815 93.6402 79.0227 93.3587 79.007Z" fill="#3D3DFF"/>
<path d="M96.1398 48.4003L78.7005 42.4894C77.2603 42.0034 75.7112 41.9356 74.2338 42.294C72.7564 42.6525 71.4117 43.4222 70.3564 44.5137L55.262 59.9285C54.6661 60.5407 54.2601 61.3114 54.0927 62.148C53.9252 62.9846 54.0035 63.8516 54.3179 64.645L56.7034 70.6166L64.9866 67.5802L63.5959 64.0883L74.2645 53.1573C74.8866 52.5255 75.6736 52.0798 76.5364 51.8706C77.3992 51.6613 78.3035 51.6968 79.1471 51.9731" fill="#FF282D"/>
<path d="M56.7034 71.0011C56.6274 71.0028 56.5528 70.9801 56.4907 70.9363C56.4286 70.8926 56.3821 70.8302 56.3583 70.7582L53.9626 64.8372C53.6179 63.977 53.5302 63.0356 53.7104 62.1268C53.8905 61.218 54.3307 60.3806 54.9777 59.7158L70.0823 44.2201C71.1949 43.0879 72.6047 42.2909 74.1504 41.9204C75.6961 41.5499 77.3151 41.6208 78.8223 42.125L96.2616 48.0459C96.3561 48.0783 96.4343 48.146 96.4797 48.2347C96.5252 48.3235 96.5343 48.4263 96.5052 48.5216C96.4728 48.6182 96.4033 48.698 96.312 48.7435C96.2206 48.789 96.1149 48.7966 96.018 48.7645L78.5787 42.8436C77.2084 42.3842 75.7359 42.319 74.3302 42.6556C72.9245 42.9921 71.6422 43.7167 70.6305 44.7464L55.536 60.2016C54.9929 60.7602 54.6227 61.4629 54.4697 62.2258C54.3166 62.9887 54.3873 63.7793 54.6732 64.5032L56.9267 70.1307L64.4892 67.3068L63.2406 64.1793C63.2115 64.1116 63.2036 64.0366 63.2181 63.9643C63.2326 63.892 63.2688 63.8258 63.3218 63.7745L73.9904 52.894C74.6671 52.2044 75.5251 51.7189 76.466 51.4933C77.4068 51.2678 78.3924 51.3112 79.3095 51.6188C79.3562 51.6347 79.3992 51.6597 79.4362 51.6922C79.4732 51.7247 79.5034 51.7642 79.5251 51.8084C79.5468 51.8526 79.5595 51.9006 79.5626 51.9497C79.5657 51.9987 79.559 52.0479 79.543 52.0945C79.5293 52.1427 79.5058 52.1876 79.4739 52.2264C79.442 52.2651 79.4024 52.2969 79.3576 52.3197C79.3128 52.3425 79.2638 52.3558 79.2136 52.3589C79.1634 52.3619 79.1131 52.3546 79.0659 52.3374C78.2854 52.0759 77.4469 52.0388 76.6462 52.2303C75.8456 52.4218 75.1152 52.8343 74.5386 53.4204L64.0324 64.1287L65.3418 67.3878C65.3777 67.4824 65.3777 67.5867 65.3418 67.6813C65.3235 67.7286 65.2948 67.7713 65.258 67.8063C65.2211 67.8413 65.177 67.8677 65.1287 67.8837L56.8557 70.9201C56.8123 70.9592 56.76 70.987 56.7034 71.0011Z" fill="#3D3DFF"/>
<path d="M95.1856 53.6128C95.0833 53.6128 94.9852 53.5722 94.9128 53.5001C94.8405 53.428 94.7999 53.3301 94.7999 53.2281C94.7998 53.1781 94.8099 53.1286 94.8294 53.0825C94.8489 53.0363 94.8775 52.9946 94.9134 52.9597C94.9494 52.9248 94.992 52.8974 95.0387 52.8792C95.0855 52.861 95.1354 52.8523 95.1856 52.8537C95.2861 52.8563 95.3816 52.898 95.4518 52.9698C95.522 53.0417 95.5612 53.138 95.5612 53.2383C95.5563 53.336 95.5151 53.4284 95.4457 53.4976C95.3763 53.5668 95.2836 53.6079 95.1856 53.6128Z" fill="#3D3DFF"/>
<path d="M89.887 42.5703C89.7976 42.5695 89.7113 42.5378 89.6428 42.4806C89.5743 42.4233 89.5279 42.3442 89.5114 42.2566H89.6535H89.5114C89.5011 42.1596 89.5262 42.0622 89.5822 41.9823C89.6381 41.9023 89.7211 41.8452 89.816 41.8214C89.9112 41.8025 90.0102 41.8201 90.093 41.8708C90.1758 41.9214 90.2363 42.0014 90.2626 42.0946C90.2745 42.1948 90.2475 42.2958 90.187 42.3767C90.1266 42.4576 90.0374 42.5124 89.9378 42.5298L89.887 42.5703Z" fill="#3D3DFF"/>
<path d="M95.1653 53.2279L97.4899 48.319C97.7261 47.7979 97.9328 47.264 98.1091 46.7199L89.5214 44.4932C89.5232 44.5303 89.5232 44.5674 89.5214 44.6045C89.3438 44.9834 89.0322 45.2837 88.6465 45.4481C88.2607 45.6124 87.8277 45.6291 87.4303 45.4952L86.2528 45.0498" fill="#FF282D"/>
<path d="M95.1652 53.6126C95.1119 53.6263 95.056 53.6263 95.0027 53.6126C94.9138 53.5669 94.8455 53.4893 94.8116 53.3954C94.7777 53.3015 94.7807 53.1983 94.82 53.1065L97.1446 48.1977C97.3296 47.8057 97.4922 47.4035 97.6318 46.9933L89.7446 44.969C89.5003 45.3799 89.1225 45.6952 88.6739 45.8627C88.2253 46.0302 87.7327 46.0399 87.2779 45.89L86.0801 45.4852C86.0296 45.4713 85.9825 45.4473 85.9416 45.4147C85.9007 45.3821 85.8669 45.3415 85.8423 45.2954C85.8176 45.2493 85.8026 45.1987 85.7982 45.1467C85.7938 45.0947 85.8001 45.0423 85.8167 44.9928C85.8332 44.9432 85.8597 44.8976 85.8946 44.8586C85.9294 44.8196 85.9718 44.7881 86.0192 44.766C86.0667 44.7439 86.1181 44.7316 86.1705 44.73C86.2228 44.7283 86.2749 44.7373 86.3237 44.7564L87.5215 45.1613C87.8297 45.2667 88.1661 45.2548 88.4659 45.1277C88.7658 45.0006 89.0079 44.7674 89.1456 44.473C89.2269 44.3111 89.4502 44.1087 89.6329 44.1593L98.2206 46.386C98.2696 46.3995 98.3155 46.4225 98.3556 46.4538C98.3956 46.4851 98.4291 46.5239 98.4541 46.5682C98.4742 46.6163 98.4845 46.6679 98.4845 46.72C98.4845 46.7721 98.4742 46.8237 98.4541 46.8718C98.2788 47.4276 98.0686 47.9719 97.8247 48.5013L95.4798 53.4608C95.4437 53.5096 95.3961 53.549 95.3413 53.5754C95.2865 53.6019 95.226 53.6146 95.1652 53.6126Z" fill="#3D3DFF"/>
<path d="M89.4907 44.9489C89.7038 44.9489 89.8765 44.7767 89.8765 44.5643C89.8765 44.3519 89.7038 44.1797 89.4907 44.1797C89.2777 44.1797 89.105 44.3519 89.105 44.5643C89.105 44.7767 89.2777 44.9489 89.4907 44.9489Z" fill="#3D3DFF"/>
<path d="M98.7183 41.6288C98.7183 41.4162 98.7183 41.2543 98.7183 41.143L98.2412 37.0033C98.128 35.8563 97.5771 34.7965 96.7024 34.043C95.8276 33.2895 94.696 32.8999 93.5414 32.9548C92.9481 33 92.3701 33.164 91.8418 33.437C91.3136 33.71 90.846 34.0864 90.4669 34.5437C90.0879 35.001 89.8052 35.5298 89.6358 36.0985C89.4664 36.6672 89.4138 37.2641 89.481 37.8535L89.9784 42.1146V42.1854C90.0599 42.9525 89.9373 43.7275 89.6231 44.4324L98.2108 46.6591C98.6961 45.0291 98.8683 43.3224 98.7183 41.6288Z" fill="#FFFF41"/>
<path d="M98.1194 47.0642H98.028L89.4404 44.8376C89.3366 44.8029 89.2496 44.7307 89.1967 44.6351C89.1717 44.5848 89.1587 44.5294 89.1587 44.4732C89.1587 44.417 89.1717 44.3616 89.1967 44.3113C89.4774 43.6755 89.5893 42.9784 89.5216 42.287L89.0242 38.036C88.9499 37.3921 89.0073 36.7398 89.1929 36.1186C89.3784 35.4973 89.6883 34.9201 90.1039 34.4216C90.5194 33.9231 91.0319 33.5137 91.6105 33.2182C92.1891 32.9226 92.8218 32.7471 93.4703 32.7021C94.715 32.6388 95.9364 33.0554 96.8813 33.8657C97.8262 34.676 98.4222 35.8177 98.5457 37.0543L99.0228 41.1939C99.0228 41.3558 99.0228 41.5076 99.0736 41.7101C99.216 43.4673 99.009 45.2352 98.4645 46.9124C98.4249 46.9651 98.3723 47.0067 98.3119 47.0333C98.2514 47.0599 98.1852 47.0705 98.1194 47.0642ZM89.9987 44.1898L97.8149 46.2141C98.2471 44.7334 98.4054 43.1866 98.2818 41.6493C98.2818 41.457 98.2818 41.3052 98.2818 41.204L97.7946 37.0138C97.6989 35.9647 97.1969 34.9942 96.3952 34.3082C95.5934 33.6223 94.5552 33.2748 93.5007 33.3397C92.9552 33.3784 92.4232 33.5265 91.9365 33.7752C91.4499 34.0239 91.0186 34.3681 90.6686 34.7871C90.3175 35.2045 90.0561 35.6894 89.9007 36.2118C89.7453 36.7341 89.6992 37.2827 89.7652 37.8235L90.3133 42.0744C90.377 42.7902 90.287 43.5114 90.0494 44.1898H89.9987Z" fill="#3D3DFF"/>
<path d="M89.7754 41.1431C89.6434 40.0602 89.5216 38.9671 89.3896 37.874C89.2847 36.7597 89.5876 35.6453 90.2423 34.7363C90.7133 34.104 91.3465 33.6099 92.0752 33.3061C92.804 33.0022 93.6015 32.8998 94.3837 33.0096C95.1659 33.1194 95.904 33.4373 96.5203 33.93C97.1366 34.4226 97.6084 35.0718 97.886 35.8092C97.5688 35.2467 97.0801 34.7995 96.4908 34.5326C95.9015 34.2658 95.2422 34.193 94.6087 34.325C93.9751 34.457 93.4002 34.7868 92.9673 35.2666C92.5345 35.7464 92.2662 36.3513 92.2015 36.9934L92.0796 38.3497C91.9977 38.944 91.7596 39.5062 91.3894 39.9792C90.977 40.516 90.4159 40.9207 89.7754 41.1431Z" fill="#9480FF"/>
<path d="M89.7749 41.5582C89.7027 41.5584 89.6321 41.5373 89.5719 41.4975C89.5222 41.4679 89.4804 41.4266 89.4503 41.3772C89.4203 41.3278 89.4028 41.2718 89.3994 41.2141L89.0136 37.955C88.8761 36.7203 89.2055 35.4788 89.9374 34.4733C90.4489 33.7855 91.1372 33.2481 91.9296 32.9178C92.722 32.5876 93.5891 32.4767 94.4394 32.5969C95.2898 32.7172 96.0918 33.064 96.7608 33.6009C97.4299 34.1378 97.9412 34.8448 98.2408 35.6474C98.2757 35.7336 98.2761 35.8298 98.2422 35.9163C98.2082 36.0029 98.1424 36.0732 98.0581 36.113C97.9735 36.1559 97.876 36.1662 97.7842 36.142C97.6924 36.1177 97.6128 36.0605 97.5607 35.9814C97.2802 35.4947 96.8531 35.1085 96.3401 34.8775C95.827 34.6465 95.254 34.5825 94.7024 34.6945C94.1508 34.8066 93.6486 35.0889 93.267 35.5016C92.8854 35.9142 92.6439 36.4362 92.5766 36.9935L92.4649 38.3295C92.3673 39.0349 92.0756 39.6995 91.6223 40.2498C91.169 40.8 90.5718 41.2144 89.8968 41.4469C89.8686 41.4956 89.8261 41.5345 89.7749 41.5582ZM93.8353 33.3701C93.2015 33.3669 92.5758 33.5117 92.0082 33.793C91.4407 34.0742 90.947 34.4839 90.5667 34.9895C89.9605 35.8227 89.6856 36.8505 89.7952 37.8741L90.0896 40.5461C90.4845 40.3463 90.8309 40.0631 91.1047 39.7161C91.4275 39.2891 91.6369 38.7878 91.7138 38.2587L91.8356 36.9227C91.9177 36.2574 92.1901 35.6297 92.6203 35.1146C93.0505 34.5995 93.6203 34.2188 94.2617 34.0178C94.8303 33.8663 95.4288 33.8663 95.9975 34.0178C95.4858 33.6774 94.9022 33.4591 94.2921 33.3802L93.8353 33.3701Z" fill="#3D3DFF"/>
<path d="M95.6627 40.8903C95.887 40.8903 96.0688 40.709 96.0688 40.4854C96.0688 40.2618 95.887 40.0806 95.6627 40.0806C95.4385 40.0806 95.2567 40.2618 95.2567 40.4854C95.2567 40.709 95.4385 40.8903 95.6627 40.8903Z" fill="#3D3DFF"/>
<path d="M95.6525 41.2748C95.4794 41.2683 95.3126 41.2082 95.1754 41.1027C95.0915 41.0342 95.0223 40.9497 94.9717 40.8541C94.9212 40.7585 94.8903 40.6537 94.881 40.5461C94.8686 40.444 94.8765 40.3404 94.9044 40.2414C94.9323 40.1424 94.9795 40.0499 95.0434 39.9691C95.1732 39.8034 95.3625 39.6945 95.5713 39.6655C95.7824 39.645 95.9934 39.7066 96.16 39.8376C96.3241 39.9673 96.4299 40.1565 96.4544 40.3639C96.4732 40.5695 96.4154 40.7749 96.292 40.9408C96.1619 41.1044 95.9721 41.2099 95.7641 41.2343L95.6525 41.2748Z" fill="#3D3DFF"/>
</g>
<defs>
<clipPath id="clip0_1073_5575">
<rect width="115" height="156" fill="white" transform="translate(2 5)"/>
</clipPath>
</defs>
</svg>
